# AST/ASF file generated using VICON BodyLanguage
# -----------------------------------------------
:version 1.10
:name VICON
:units
  mass 1.0
  length 0.45
  angle deg
:documentation
   .ast/.asf automatically generated from VICON data using
   VICON BodyBuilder and BodyLanguage model FoxedUp or BRILLIANT.MOD
:root
   order TX TY TZ RX RY RZ
   axis XYZ
   position 0 0 0  
   orientation 0 0 0 
:bonedata
  begin
     id 1 
     name lhipjoint
     direction 0.643272 -0.706573 0.294883 
     length 2.58915 
     axis 0 0 0  XYZ
  end
  begin
     id 2 
     name lfemur
     direction 0.34202 -0.939693 0  
     length 7.06802  
     axis 0 0 20  XYZ
    dof rx ry rz
    limits (-160.0 20.0)
           (-70.0 70.0)
           (-60.0 70.0)
  end
  begin
     id 3 
     name ltibia
     direction 0.34202 -0.939693 0   
     length 7.94147   
     axis 0 0 20   XYZ
    dof rx
    limits (-10.0 170.0)
  end
  begin
     id 4 
     name lfoot
     direction 0.0435058 -0.119531 0.991877   
     length 1.8399   
     axis -90 7.62852e-016 20   XYZ
    dof rx rz
    limits (-45.0 90.0)
           (-70.0 20.0)
  end
  begin
     id 5 
     name ltoes
     direction 1.53505e-011 -4.22157e-011 1   
     length 0.934412   
     axis -90 7.62852e-016 20   XYZ
    dof rx
    limits (-90.0 20.0)
  end
  begin
     id 6 
     name rhipjoint
     direction -0.636801 -0.711547 0.296959   
     length 2.57105  
     axis 0 0 0  XYZ 
  end
  begin
     id 7 
     name rfemur
     direction -0.34202 -0.939693 0   
     length 7.03285   
     axis 0 0 -20   XYZ
    dof rx ry rz
    limits (-160.0 20.0)
           (-70.0 70.0)
           (-70.0 60.0)
  end
  begin
     id 8 
     name rtibia
     direction -0.34202 -0.939693 0   
     length 7.99111   
     axis 0 0 -20   XYZ
    dof rx
    limits (-10.0 170.0)
 end
 begin
     id 9 
     name rfoot
     direction -0.0783088 -0.215152 0.973436   
     length 1.98785  
     axis -90 -7.62852e-016 -20   XYZ
    dof rx rz
    limits (-45.0 90.0)
           (-20.0 70.0)
  end
  begin
     id 10 
     name rtoes
     direction -1.53606e-011 -4.21943e-011 1   
     length 1.001   
     axis -90 -7.62852e-016 -20   XYZ
    dof rx
    limits (-90.0 20.0)
  end
  begin
     id 11 
     name lowerback
     direction 0.00141527 0.998403 -0.0564763   
     length 2.30486   
     axis 0 0 0   XYZ
    dof rx ry rz
    limits (-20.0 45.0)
           (-30.0 30.0)
           (-30.0 30.0)
  end
  begin
     id 12 
     name upperback
     direction 0.0125137 0.999915 0.00361315   
     length 2.30697   
     axis 0 0 0   XYZ
    dof rx ry rz
    limits (-20.0 45.0)
           (-30.0 30.0)
           (-30.0 30.0)
  end
  begin
     id 13 
     name thorax
     direction 0.0136417 0.999471 0.0295116   
     length 2.31005   
     axis 0 0 0   XYZ
    dof rx ry rz
    limits (-20.0 45.0)
           (-30.0 30.0)
           (-30.0 30.0)
  end
  begin
     id 14 
     name lowerneck
     direction 0.0766806 0.997047 0.00422047   
     length 1.68825   
     axis 0 0 0   XYZ
    dof rx ry rz
    limits (-20.0 45.0)
           (-30.0 30.0)
           (-30.0 30.0)
  end
  begin
     id 15 
     name upperneck
     direction -0.143512 0.985106 -0.0947088   
     length 1.69772   
     axis 0 0 0   XYZ
    dof rx ry rz
    limits (-20.0 45.0)
           (-30.0 30.0)
           (-30.0 30.0)
  end
  begin
     id 16
     name head
     direction -0.0539128 0.997849 -0.0372864  
     length 1.71187  
     axis 0 0 0   XYZ
    dof rx ry rz
    limits (-20.0 45.0)
           (-30.0 30.0)
           (-30.0 30.0)
  end
  begin
     id 17 
     name lclavicle
     direction 0.978251 0.207416 -0.00165765  
     length 3.35399  
     axis 0 0 0   XYZ
    dof ry rz
    limits (-20.0 10.0)
           (0.0 20.0)
  end
  begin
     id 18 
     name lhumerus
     direction 1 -4.48966e-011 -1.32191e-028   
     length 5.70706   
     axis 180 -30 -90   XYZ
    dof rx ry rz
    limits (-60.0 90.0)
           (-90.0 90.0)
           (-90.0 90.0)
  end
  begin
     id 19
     name lradius
     direction 1 -4.48976e-011 9.36106e-027   
     length 3.33243   
     axis 180 -30 -90   XYZ
    dof rx
    limits (-10.0 170.0)
  end
  begin
     id 20
     name lwrist
     direction 1 -4.48976e-011 1.1555e-026   
     length 1.66621   
     axis -5.7412e-015 90 90   XYZ
    dof ry
    limits (-180.0 0.0)
 end
  begin
     id 21 
     name lhand
     direction 1 -4.48939e-011 2.31113e-026   
     length 0.792687   
     axis -1.47463e-014 90 90   XYZ
    dof rx rz
    limits (-90.0 90.0)
           (-45.0 45.0)
  end
  begin
     id 22 
     name lfingers
     direction 1 -4.48866e-011 4.62274e-026   
     length 0.639085   
     axis -2.94925e-014 90 90   XYZ
    dof rx
    limits (0.0 90.0)
  end
  begin
     id 23
     name lthumb
     direction 0.707107 -6.34847e-011 0.707107   
     length 0.917601   
     axis -90 45 -6.68868e-015   XYZ
    dof rx rz
    limits (-45.0 45.0)
           (-45.0 45.0)
  end
  begin
     id 24 
     name rclavicle
     direction -0.981813 0.185514 0.0403428   
     length 3.47271  
     axis 0 0 0   XYZ 
    dof ry rz
    limits (-10.0 20.0)
           (-20.0 0.0)
  end
  begin
     id 25 
     name rhumerus
     direction -1 -4.48972e-011 -6.58544e-029  
     length 5.88176   
     axis 180 30 90   XYZ
    dof rx ry rz
    limits (-90.0 60.0)
           (-90.0 90.0)
           (-90.0 90.0)
  end
  begin
     id 26 
     name rradius
     direction -1 -4.48964e-011 8.36306e-027   
     length 3.28156   
     axis 180 30 90   XYZ
    dof rx
    limits (-10.0 170.0)
  end
  begin
     id 27 
     name rwrist
     direction -1 -4.48903e-011 1.15562e-026   
     length 1.64078   
     axis -5.7412e-015 -90 -90   XYZ
    dof ry
    limits (-180.0 0.0)
  end
  begin
     id 28
     name rhand
     direction -1 -4.49055e-011 2.31074e-026   
     length 0.863125   
     axis -1.47463e-014 -90 -90   XYZ
    dof rx rz
    limits (-90.0 90.0)
           (-45.0 45.0)
  end
  begin
     id 29
     name rfingers
     direction -1 -4.48994e-011 4.62188e-026   
     length 0.695873   
     axis -2.94925e-014 -90 -90   XYZ
    dof rx
    limits (0.0 90.0)
  end
  begin
     id 30
     name rthumb
     direction -0.707107 -6.35058e-011 0.707107   
     length 0.999139   
     axis -90 -45 6.68868e-015   XYZ
    dof rx rz
    limits (-45.0 45.0)
           (-45.0 45.0)
  end
:hierarchy
  begin
    root lhipjoint rhipjoint lowerback
    lhipjoint lfemur
    lfemur ltibia
    ltibia lfoot
    lfoot ltoes
    rhipjoint rfemur
    rfemur rtibia
    rtibia rfoot
    rfoot rtoes
    lowerback upperback
    upperback thorax
    thorax lowerneck lclavicle rclavicle
    lowerneck upperneck
    upperneck head
    lclavicle lhumerus
    lhumerus lradius
    lradius lwrist
    lwrist lhand lthumb
    lhand lfingers
    rclavicle rhumerus
    rhumerus rradius
    rradius rwrist
    rwrist rhand rthumb
    rhand rfingers
  end

#!OML:ASF \\Waltz\H\Terrain\Patient Classification 1\Animal2\Wednesday\Animal2.ASF
:FULLY-SPECIFIED
:DEGREES
1159
root 0.377643 17.0186 -2.52861 0.662521 5.55486 1.34719
lowerback 5.54256 -3.07428 -0.106749
upperback -2.24477 -4.18328 -1.27887
thorax -5.52564 -2.08924 -0.837058
lowerneck 5.17773 4.05103 15.2871
upperneck -4.72889 5.68358 -18.5172
head -1.21533 3.11228 -8.37653
rclavicle -5.71009e-014 -1.59028e-014
rhumerus 21.6447 49.9324 -52.5288
rradius 92.3649
rwrist -18.1211
rhand -12.2319 19.2136
rfingers 7.12502
rthumb 13.8335 -10.3064
lclavicle -5.71009e-014 -1.59028e-014
lhumerus 20.9897 16.106 24.1908
lradius 84.8429
lwrist -0.471891
lhand -52.2236 20.6404
lfingers 7.12502
lthumb -24.7218 49.0631
rfemur -17.2135 14.5 8.09713
rtibia 55.1091
rfoot -27.4042 -11.0197
rtoes 32.5198
lfemur -15.9462 2.0871 -22.8604
ltibia 43.981
lfoot -26.5735 -9.11694
ltoes -1.38537
1160
root 0.397389 17.0308 -2.51841 0.656091 5.47663 1.9632
lowerback 5.54587 -3.16762 -0.292031
upperback -2.21292 -4.3403 -1.62831
thorax -5.51152 -2.16724 -1.08009
lowerneck 5.40916 4.64608 15.6555
upperneck -5.02652 6.51537 -18.8289
head -1.16661 3.54186 -8.54672
rclavicle -1.93007e-014 1.90833e-014
rhumerus 22.4442 49.8991 -52.1369
rradius 91.9135
rwrist -18.139
rhand -11.9378 19.5551
rfingers 7.12502
rthumb 14.1169 -9.94539
lclavicle -1.93007e-014 1.90833e-014
lhumerus 21.0548 15.844 24.1795
lradius 84.4912
lwrist -0.980382
lhand -52.0489 19.7301
lfingers 7.12502
lthumb -24.5543 48.1756
rfemur -17.8458 14.5218 7.96915
rtibia 56.2883
rfoot -27.347 -11.3479
rtoes 32.225
lfemur -15.4107 2.39565 -23.5855
ltibia 43.1533
lfoot -26.2624 -9.3133
ltoes -1.19658
1161
root 0.421645 17.0436 -2.50329 0.581702 5.31086 2.35664
lowerback 5.53336 -3.24743 -0.248838
upperback -2.16033 -4.45614 -1.88634
thorax -5.47677 -2.23131 -1.36136
lowerneck 5.89944 5.18436 15.908
upperneck -5.59255 7.26668 -19.1202
head -1.25211 3.9465 -8.70631
rclavicle 2.30342e-014 1.8487e-014
rhumerus 23.1727 50.0856 -51.614
rradius 91.87
rwrist -18.5563
rhand -12.3277 19.2092
rfingers 7.12502
rthumb 13.7412 -10.317
lclavicle 2.30342e-014 1.8487e-014
lhumerus 21.218 15.4767 24.3177
lradius 84.1491
lwrist -1.53456
lhand -52.3856 20.3872
lfingers 7.12502
lthumb -24.8771 48.7885
rfemur -18.3145 14.5289 8.13983
rtibia 57.318
rfoot -27.356 -11.5081
rtoes 31.018
lfemur -14.8528 2.58322 -24.0942
ltibia 42.3928
lfoot -26.03 -8.98931
ltoes -2.98665
1162
root 0.444637 17.0563 -2.48634 0.597241 5.16082 2.97346
lowerback 5.54978 -3.36546 -0.40946
upperback -2.16842 -4.64403 -2.20806
thorax -5.51506 -2.32507 -1.58433
lowerneck 6.5583 5.63937 15.9698
upperneck -6.47592 7.87905 -19.297
head -1.49123 4.29159 -8.81633
rclavicle 9.61621e-015 -3.97569e-015
rhumerus 24.0003 50.2229 -51.092
rradius 91.7508
rwrist -18.9393
rhand -12.0044 19.3397
rfingers 7.12502
rthumb 14.0528 -10.1652
lclavicle 9.61621e-015 -3.97569e-015
lhumerus 21.1719 15.0062 24.1551
lradius 83.8178
lwrist -2.10718
lhand -52.3514 20.7861
lfingers 7.12502
lthumb -24.8443 49.1919
rfemur -18.8263 14.4521 8.05033
rtibia 58.2514
rfoot -27.466 -11.1498
rtoes 30.4563
lfemur -14.378 2.63289 -24.8578
ltibia 41.6823
lfoot -25.8199 -8.68658
ltoes -4.08054
1163
root 0.459855 17.0593 -2.47517 0.676777 5.05069 3.72174
lowerback 5.59803 -3.46484 -0.772981
upperback -2.18493 -4.82452 -2.5435
thorax -5.56569 -2.40809 -1.7077
lowerneck 6.71008 6.04439 16.1711
upperneck -6.92512 8.41152 -19.6135
head -1.52011 4.57352 -8.96424
rclavicle -3.40295e-014 -1.94809e-014
rhumerus 24.9702 50.1408 -50.4234
rradius 91.3811
rwrist -19.0317
rhand -11.3093 19.8654
rfingers 7.12502
rthumb 14.7225 -9.59182
lclavicle -3.40295e-014 -1.94809e-014
lhumerus 21.1009 14.633 23.9719
lradius 83.5522
lwrist -2.54696
lhand -51.8372 20.1171
lfingers 7.12502
lthumb -24.3514 48.59
rfemur -19.4281 14.2623 7.83638
rtibia 59.1405
rfoot -27.1998 -10.8117
rtoes 29.2873
lfemur -13.9996 2.73589 -25.7236
ltibia 40.9829
lfoot -25.6222 -8.66078
ltoes -4.29698
1164
root 0.473304 17.0605 -2.46656 0.758521 4.9386 4.54976
lowerback 5.66965 -3.54923 -1.23739
upperback -2.19891 -4.9945 -2.8838
thorax -5.61871 -2.48212 -1.78019
lowerneck 6.45764 6.52168 16.4574
upperneck -6.90427 9.0512 -19.9287
head -1.31917 4.88563 -9.08481
rclavicle 3.73964e-014 2.54444e-014
rhumerus 25.9882 50.2454 -49.4501
rradius 91.2909
rwrist -19.707
rhand -11.4782 19.5803
rfingers 7.12502
rthumb 14.5598 -9.88873
lclavicle 3.73964e-014 2.54444e-014
lhumerus 21.1533 14.3877 23.9181
lradius 83.3876
lwrist -2.99981
lhand -51.1773 20.0687
lfingers 7.12502
lthumb -23.7186 48.6251
rfemur -20.0157 14.0231 7.54298
rtibia 59.9548
rfoot -27.0492 -10.3788
rtoes 28.1467
lfemur -13.5996 2.84609 -26.6633
ltibia 40.2774
lfoot -25.3775 -8.57917
ltoes -4.87431
1165
root 0.490379 17.0683 -2.44867 0.803076 4.77094 5.53169
lowerback 5.66285 -3.64356 -1.8588
upperback -2.1889 -5.18938 -3.2691
thorax -5.59276 -2.56424 -1.81622
lowerneck 6.68006 7.00427 16.4474
upperneck -7.40798 9.68809 -19.9259
head -1.3792 5.21614 -9.0878
rclavicle -2.66123e-014 -5.76476e-014
rhumerus 27.1674 50.3534 -48.3939
rradius 91.1115
rwrist -19.9327
rhand -11.3401 19.3108
rfingers 7.12502
rthumb 14.6929 -10.1486
lclavicle -2.66123e-014 -5.76476e-014
lhumerus 21.1869 14.1667 23.6634
lradius 83.1249
lwrist -3.42736
lhand -51.1181 19.7909
lfingers 7.12502
lthumb -23.6619 48.3547
rfemur -20.4933 13.8203 7.02469
rtibia 60.6418
rfoot -27.2765 -9.2528
rtoes 29.0996
lfemur -13.0904 3.07263 -27.7748
ltibia 39.5762
lfoot -25.0626 -8.76921
ltoes -3.94115
1166
root 0.509396 17.0741 -2.42292 0.749433 4.49205 6.28663
lowerback 5.67175 -3.71688 -2.24429
upperback -2.27595 -5.34136 -3.6084
thorax -5.69302 -2.63189 -1.9361
lowerneck 7.49302 7.32367 16.3987
upperneck -8.17025 10.1522 -19.8436
head -1.65398 5.48549 -9.10868
rclavicle 9.79014e-015 1.23246e-014
rhumerus 28.0348 50.5784 -47.6914
rradius 90.7214
rwrist -19.7616
rhand -10.875 19.6322
rfingers 7.12502
rthumb 15.1409 -9.79398
lclavicle 9.79014e-015 1.23246e-014
lhumerus 21.0378 13.5941 23.0435
lradius 82.6017
lwrist -3.60625
lhand -51.8879 19.2193
lfingers 7.12502
lthumb -24.4001 47.6857
rfemur -20.8431 13.6328 6.76435
rtibia 61.1869
rfoot -27.4732 -8.45889
rtoes 29.7432
lfemur -12.4903 3.47443 -28.6362
ltibia 38.8739
lfoot -24.8174 -8.94027
ltoes -3.583
1167
root 0.521249 17.0791 -2.39901 0.688458 4.17185 6.69919
lowerback 5.78908 -3.79105 -2.33805
upperback -2.46177 -5.47864 -3.85087
thorax -5.97658 -2.69918 -2.10803
lowerneck 8.04886 7.58131 16.6201
upperneck -8.42887 10.5736 -19.9647
head -1.72196 5.72016 -9.21241
rclavicle 8.67695e-014 3.45885e-014
rhumerus 28.6574 50.9886 -47.1265
rradius 90.5225
rwrist -20.1278
rhand -10.8416 20.0819
rfingers 7.12502
rthumb 15.1731 -9.34182
lclavicle 8.67695e-014 3.45885e-014
lhumerus 20.7963 12.8905 22.3282
lradius 82.1632
lwrist -3.78561
lhand -52.0668 19.5303
lfingers 7.12502
lthumb -24.5716 47.9735
rfemur -21.1929 13.4895 6.97661
rtibia 61.6103
rfoot -27.496 -8.78034
rtoes 28.5816
lfemur -11.9189 3.91735 -29.0777
ltibia 38.0772
lfoot -24.3974 -9.23139
ltoes -3.07372
1168
root 0.526344 17.0936 -2.37763 0.779892 3.82122 7.14285
lowerback 5.83157 -3.84448 -2.50582
upperback -2.59648 -5.5902 -4.11234
thorax -6.15913 -2.75245 -2.26859
lowerneck 8.21477 7.86749 16.8026
upperneck -8.67058 10.982 -20.0368
head -1.7251 5.92944 -9.26984
rclavicle 6.16232e-014 7.95139e-015
rhumerus 29.4972 51.0661 -46.3861
rradius 90.4077
rwrist -20.6835
rhand -10.5809 20.2409
rfingers 7.12502
rthumb 15.4242 -9.16364
lclavicle 6.16232e-014 7.95139e-015
lhumerus 20.8077 12.5073 21.7629
lradius 81.8617
lwrist -4.01489
lhand -51.8249 19.2385
lfingers 7.12502
lthumb -24.3396 47.7129
rfemur -21.7037 13.4018 7.12694
rtibia 61.919
rfoot -27.5966 -8.95005
rtoes 28.3185
lfemur -11.4816 4.43102 -29.5216
ltibia 37.1832
lfoot -23.8704 -9.61645
ltoes -2.53926
